<svg width="74" height="30" viewBox="0 0 74 30">
    <defs>
        <path id="prefix__a" d="M14.657 0.023L14.657 12.296 0.204 12.296 0.204 0.023 14.657 0.023z"></path>
    </defs>
    <g fill="none" fill-rule="evenodd" transform="translate(0 -1)">
        <path fill="#000"
              d="M14.201 26.174H9.279v-4.47c0-.803-.65-1.453-1.452-1.453-.803 0-1.453.65-1.453 1.452v4.471H1.452c-.802 0-1.452.65-1.452 1.453 0 .802.65 1.452 1.452 1.452h12.749c.802 0 1.452-.65 1.452-1.452 0-.803-.65-1.453-1.452-1.453M4.494 10.15c0-4.593 2.088-5.28 3.333-5.28 1.244 0 3.333.687 3.333 5.28v.361c0 4.593-2.089 5.279-3.333 5.279-1.245 0-3.333-.686-3.333-5.279v-.361zm3.333 8.545c3.847 0 6.237-3.136 6.237-8.184v-.361c0-5.048-2.39-8.184-6.237-8.184-3.848 0-6.238 3.136-6.238 8.184v.361c0 5.048 2.39 8.184 6.238 8.184zM33.372 11.346H17.806c-.802 0-1.453.65-1.453 1.452 0 .802.65 1.453 1.453 1.453h15.566c.803 0 1.453-.65 1.453-1.453 0-.802-.65-1.452-1.453-1.452M31.82 26.844c-7.076 1.838-9.448.793-10.139.258-.453-.35-.655-.808-.655-1.486v-.865h10.257c.802 0 1.452-.65 1.452-1.452v-5.08c0-.802-.65-1.452-1.452-1.452h-11.71c-.802 0-1.452.65-1.452 1.452 0 .802.65 1.452 1.453 1.452H29.83v2.175H19.574c-.803 0-1.453.65-1.453 1.453v2.317c0 1.574.617 2.882 1.783 3.784 1.195.925 2.937 1.387 5.209 1.387 2.05 0 4.534-.377 7.436-1.131.777-.202 1.243-.994 1.041-1.771-.202-.777-.994-1.242-1.77-1.04M20.309 8.83h10.81c.802 0 1.452-.65 1.452-1.453 0-.802-.65-1.452-1.452-1.452H21.76V2.452c0-.802-.65-1.452-1.452-1.452-.803 0-1.453.65-1.453 1.452v4.925c0 .802.65 1.452 1.453 1.452"></path>
        <rect width="3" height="15" x=".817" y=".663" fill="#000" rx="1.5" transform="translate(69.183 .337)"></rect>
        <path fill="#000"
              d="M64.497 14.276c.216.587.772.952 1.364.952.164 0 .331-.029.495-.088.754-.274 1.143-1.106.87-1.86-.047-.13-.997-2.68-3.373-4.495l3.69-4.104c.382-.426.479-1.038.246-1.562-.234-.524-.753-.861-1.327-.861h-9.048c-.802 0-1.453.65-1.453 1.452 0 .802.65 1.452 1.453 1.452h5.79l-6.87 7.642c-.536.596-.488 1.515.109 2.05.277.25.625.373.97.373.398 0 .794-.162 1.081-.481l3.408-3.792c1.805 1.276 2.577 3.273 2.595 3.322"></path>
        <g transform="translate(58.624 18.126)">
            <mask id="prefix__b" fill="#fff">
                <use xlink:href="#prefix__a"></use>
            </mask>
            <path fill="#000"
                  d="M10.937 9.39H3.924c-.45 0-.815-.365-.815-.814v-1.95h8.643v1.95c0 .45-.365.815-.815.815M13.204.023c-.802 0-1.452.65-1.452 1.453V3.72H3.109V1.476c0-.802-.65-1.453-1.453-1.453C.854.023.204.673.204 1.476v7.1c0 2.05 1.669 3.72 3.72 3.72h7.013c2.051 0 3.72-1.67 3.72-3.72v-7.1c0-.802-.65-1.453-1.453-1.453"
                  mask="url(#prefix__b)"></path>
        </g>
        <path fill="#000"
              d="M42.464 4.87c2.213 0 2.325 4.236 2.325 5.085 0 .849-.112 5.084-2.325 5.084-2.214 0-2.326-4.235-2.326-5.084 0-.85.112-5.084 2.326-5.084m0 13.073c1.758 0 3.226-.933 4.133-2.627.717-1.342 1.097-3.196 1.097-5.362s-.38-4.02-1.097-5.362c-.907-1.694-2.375-2.627-4.133-2.627-1.759 0-3.227.933-4.133 2.627-.718 1.342-1.097 3.196-1.097 5.362s.38 4.02 1.097 5.362c.906 1.694 2.374 2.627 4.133 2.627"></path>
        <path fill="#000"
              d="M51.398 1.488c-.802 0-1.452.65-1.452 1.452v17.778c-1.925.599-5.744 1.127-10.372 1.127h-2.212c-.802 0-1.452.65-1.452 1.453 0 .802.65 1.452 1.452 1.452h2.212c2.64 0 7.209-.233 10.372-1.019v4.837c0 .802.65 1.452 1.452 1.452.803 0 1.453-.65 1.453-1.452V2.94c0-.802-.65-1.452-1.453-1.452"></path>
    </g>
</svg>